<svg xmlns="http://www.w3.org/2000/svg" width="1480" height="720"><rect width="1480" height="720" x="0" y="0" fill="#FFFFFF" id="background"/><g transform="translate(20,20)" id="viz"><g id="nodes"><g transform="translate(621,341)"><path id="p_1303" d="M-6.245698675651501e-14,340A340,340,0,1,1,6.245698675651501e-14,-340A340,340,0,1,1,-6.245698675651501e-14,340Z" fill="none" stroke="#ccc"/><text fill="black" text-anchor="middle" font-family="'Arial', sans-serif" font-size="8" dominant-baseline="middle"><textPath href="#p_1303" startOffset="50%"/></text></g><g transform="translate(524.5433082635576,368.8142359278038)" id="Asia"><path id="p_1055.2836141861842" d="M-2.956163947777839e-14,160.92606999482274A160.92606999482274,160.92606999482274,0,1,1,2.956163947777839e-14,-160.92606999482274A160.92606999482274,160.92606999482274,0,1,1,-2.956163947777839e-14,160.92606999482274Z" fill="none" stroke="#ccc"/><text fill="black" text-anchor="middle" font-family="'Arial', sans-serif" font-size="8" dominant-baseline="middle"><textPath href="#p_1055.2836141861842" startOffset="50%">Asia</textPath></text></g><g transform="translate(800.1788160038827,368.8142359278038)" id="Africa"><path id="p_1280.313721226395" d="M-2.0265578179733784e-14,110.3206692947086A110.3206692947086,110.3206692947086,0,1,1,2.0265578179733784e-14,-110.3206692947086A110.3206692947086,110.3206692947086,0,1,1,-2.0265578179733784e-14,110.3206692947086Z" fill="none" stroke="#ccc"/><text fill="black" text-anchor="middle" font-family="'Arial', sans-serif" font-size="8" dominant-baseline="middle"><textPath href="#p_1280.313721226395" startOffset="50%">Africa</textPath></text></g><g transform="translate(706.3170146468601,561.2593789953568)" id="Europe"><path id="p_1367.981810225591" d="M-1.8260478785510794e-14,99.40541658337436A99.40541658337436,99.40541658337436,0,1,1,1.8260478785510794e-14,-99.40541658337436A99.40541658337436,99.40541658337436,0,1,1,-1.8260478785510794e-14,99.40541658337436Z" fill="none" stroke="#ccc"/><text fill="black" text-anchor="middle" font-family="'Arial', sans-serif" font-size="8" dominant-baseline="middle"><textPath href="#p_1367.981810225591" startOffset="50%">Europe</textPath></text></g><g transform="translate(704.9253963518859,185.55619430036162)" id="South America"><path id="p_983.3071953971776" d="M-1.686808993959729e-14,91.82560474493006A91.82560474493006,91.82560474493006,0,1,1,1.686808993959729e-14,-91.82560474493006A91.82560474493006,91.82560474493006,0,1,1,-1.686808993959729e-14,91.82560474493006Z" fill="none" stroke="#ccc"/><text fill="black" text-anchor="middle" font-family="'Arial', sans-serif" font-size="8" dominant-baseline="middle"><textPath href="#p_983.3071953971776" startOffset="50%">South America</textPath></text></g><g transform="translate(532.5952523552148,112.76914948232724)" id="North America"><path id="p_737.2212247764876" d="M-1.6690127608931605e-14,90.85682293894546A90.85682293894546,90.85682293894546,0,1,1,1.6690127608931605e-14,-90.85682293894546A90.85682293894546,90.85682293894546,0,1,1,-1.6690127608931605e-14,90.85682293894546Z" fill="none" stroke="#ccc"/><text fill="black" text-anchor="middle" font-family="'Arial', sans-serif" font-size="8" dominant-baseline="middle"><textPath href="#p_737.2212247764876" startOffset="50%">North America</textPath></text></g><g transform="translate(461.55297554373425,368.8142359278038)" id="China"><path id="p_924.9141802957436" d="M-1.718429939107508e-14,93.54696882420554A93.54696882420554,93.54696882420554,0,1,1,1.718429939107508e-14,-93.54696882420554A93.54696882420554,93.54696882420554,0,1,1,-1.718429939107508e-14,93.54696882420554Z" fill="none" stroke="#ccc"/><text fill="black" text-anchor="middle" font-family="'Arial', sans-serif" font-size="8" dominant-baseline="middle"><textPath href="#p_924.9141802957436" startOffset="50%">China</textPath></text></g><g transform="translate(620.2846613131601,368.8142359278038)" id="India"><path id="p_1050.8948457353904" d="M-1.1168034558724002e-14,60.79594849442644A60.79594849442644,60.79594849442644,0,1,1,1.1168034558724002e-14,-60.79594849442644A60.79594849442644,60.79594849442644,0,1,1,-1.1168034558724002e-14,60.79594849442644Z" fill="none" stroke="#ccc"/><text fill="black" text-anchor="middle" font-family="'Arial', sans-serif" font-size="8" dominant-baseline="middle"><textPath href="#p_1050.8948457353904" startOffset="50%">India</textPath></text></g><g transform="translate(565.7643542672834,457.4264850912516)" id="Pakistan"><path id="p_1063.0474343147976" d="M-7.137840695842816e-15,38.85659495626254A38.85659495626254,38.85659495626254,0,1,1,7.137840695842816e-15,-38.85659495626254A38.85659495626254,38.85659495626254,0,1,1,-7.137840695842816e-15,38.85659495626254Z" fill="none" stroke="#ccc"/><text fill="black" text-anchor="middle" font-family="'Arial', sans-serif" font-size="8" dominant-baseline="middle"><textPath href="#p_1063.0474343147976" startOffset="50%">Pakistan</textPath></text></g><g transform="translate(564.0456073965406,291.36875146042405)" id="Japan"><path id="p_886.9408442332259" d="M-5.6076243907885274e-15,30.52648537626127A30.52648537626127,30.52648537626127,0,1,1,5.6076243907885274e-15,-30.52648537626127A30.52648537626127,30.52648537626127,0,1,1,-5.6076243907885274e-15,30.52648537626127Z" fill="none" stroke="#ccc"/><text fill="black" text-anchor="middle" font-family="'Arial', sans-serif" font-size="8" dominant-baseline="middle"><textPath href="#p_886.9408442332259" startOffset="50%">Japan</textPath></text></g><g transform="translate(513.7398894668274,255.34673829177805)" id="Indonesia"><path id="p_797.0442329987211" d="M-4.952031745497835e-15,26.95760524011567A26.95760524011567,26.95760524011567,0,1,1,4.952031745497835e-15,-26.95760524011567A26.95760524011567,26.95760524011567,0,1,1,-4.952031745497835e-15,26.95760524011567Z" fill="none" stroke="#ccc"/><text fill="black" text-anchor="middle" font-family="'Arial', sans-serif" font-size="8" dominant-baseline="middle"><textPath href="#p_797.0442329987211" startOffset="50%">Indonesia</textPath></text></g><g transform="translate(749.7903736893008,370.20247145993415)" id="Nigeria"><path id="p_1155.1918003803949" d="M-6.282246158703492e-15,34.19895523115964A34.19895523115964,34.19895523115964,0,1,1,6.282246158703492e-15,-34.19895523115964A34.19895523115964,34.19895523115964,0,1,1,-6.282246158703492e-15,34.19895523115964Z" fill="none" stroke="#ccc"/><text fill="black" text-anchor="middle" font-family="'Arial', sans-serif" font-size="8" dominant-baseline="middle"><textPath href="#p_1155.1918003803949" startOffset="50%">Nigeria</textPath></text></g><g transform="translate(833.4364559138724,370.20247145993415)" id="Egypt"><path id="p_1249.6972859164243" d="M-8.277086184607648e-15,45.058358542618045A45.058358542618045,45.058358542618045,0,1,1,8.277086184607648e-15,-45.058358542618045A45.058358542618045,45.058358542618045,0,1,1,-8.277086184607648e-15,45.058358542618045Z" fill="none" stroke="#ccc"/><text fill="black" text-anchor="middle" font-family="'Arial', sans-serif" font-size="8" dominant-baseline="middle"><textPath href="#p_1249.6972859164243" startOffset="50%">Egypt</textPath></text></g><g transform="translate(782.5979136641616,425.16963410292067)" id="Democratic Republic of the Congo"><path id="p_1234.1932886705004" d="M-4.670632831998137e-15,25.425740903418106A25.425740903418106,25.425740903418106,0,1,1,4.670632831998137e-15,-25.425740903418106A25.425740903418106,25.425740903418106,0,1,1,-4.670632831998137e-15,25.425740903418106Z" fill="none" stroke="#ccc"/><text fill="black" text-anchor="middle" font-family="'Arial', sans-serif" font-size="8" dominant-baseline="middle"><textPath href="#p_1234.1932886705004" startOffset="50%">Democratic Republic of the Congo</textPath></text></g><g transform="translate(783.0036904945266,319.1709777821304)" id="Somalia"><path id="p_1125.4748560401786" d="M-4.096478034747255e-15,22.3001877635216A22.3001877635216,22.3001877635216,0,1,1,4.096478034747255e-15,-22.3001877635216A22.3001877635216,22.3001877635216,0,1,1,-4.096478034747255e-15,22.3001877635216Z" fill="none" stroke="#ccc"/><text fill="black" text-anchor="middle" font-family="'Arial', sans-serif" font-size="8" dominant-baseline="middle"><textPath href="#p_1125.4748560401786" startOffset="50%">Somalia</textPath></text></g><g transform="translate(830.6907281012345,440.15447095235476)" id="Sudan"><path id="p_1292.4039379158949" d="M-3.776579061334321e-15,20.558738862305564A20.558738862305564,20.558738862305564,0,1,1,3.776579061334321e-15,-20.558738862305564A20.558738862305564,20.558738862305564,0,1,1,-3.776579061334321e-15,20.558738862305564Z" fill="none" stroke="#ccc"/><text fill="black" text-anchor="middle" font-family="'Arial', sans-serif" font-size="8" dominant-baseline="middle"><textPath href="#p_1292.4039379158949" startOffset="50%">Sudan</textPath></text></g><g transform="translate(826.0229903618268,301.2317577235878)" id="Angola"><path id="p_1148.1756167729534" d="M-3.659404211164381e-15,19.920868687538867A19.920868687538867,19.920868687538867,0,1,1,3.659404211164381e-15,-19.920868687538867A19.920868687538867,19.920868687538867,0,1,1,-3.659404211164381e-15,19.920868687538867Z" fill="none" stroke="#ccc"/><text fill="black" text-anchor="middle" font-family="'Arial', sans-serif" font-size="8" dominant-baseline="middle"><textPath href="#p_1148.1756167729534" startOffset="50%">Angola</textPath></text></g><g transform="translate(737.3969128612775,313.7153841113702)" id="Tanzania"><path id="p_1071.3552650418746" d="M-3.5348758878110162e-15,19.242968069226897A19.242968069226897,19.242968069226897,0,1,1,3.5348758878110162e-15,-19.242968069226897A19.242968069226897,19.242968069226897,0,1,1,-3.5348758878110162e-15,19.242968069226897Z" fill="none" stroke="#ccc"/><text fill="black" text-anchor="middle" font-family="'Arial', sans-serif" font-size="8" dominant-baseline="middle"><textPath href="#p_1071.3552650418746" startOffset="50%">Tanzania</textPath></text></g><g transform="translate(733.9543246219114,425.39275703471725)" id="Ivory Coast"><path id="p_1179.176673062468" d="M-3.4589398266620437e-15,18.829591405839313A18.829591405839313,18.829591405839313,0,1,1,3.4589398266620437e-15,-18.829591405839313A18.829591405839313,18.829591405839313,0,1,1,-3.4589398266620437e-15,18.829591405839313Z" fill="none" stroke="#ccc"/><text fill="black" text-anchor="middle" font-family="'Arial', sans-serif" font-size="8" dominant-baseline="middle"><textPath href="#p_1179.176673062468" startOffset="50%">Ivory Coast</textPath></text></g><g transform="translate(867.0265289433919,311.70326899440505)" id="South Africa"><path id="p_1197.739692041017" d="M-3.3083638749736545e-15,18.009894103219892A18.009894103219892,18.009894103219892,0,1,1,3.3083638749736545e-15,-18.009894103219892A18.009894103219892,18.009894103219892,0,1,1,-3.3083638749736545e-15,18.009894103219892Z" fill="none" stroke="#ccc"/><text fill="black" text-anchor="middle" font-family="'Arial', sans-serif" font-size="8" dominant-baseline="middle"><textPath href="#p_1197.739692041017" startOffset="50%">South Africa</textPath></text></g><g transform="translate(666.3925266819991,566.6301827972878)" id="Russia"><path id="p_1281.8263936863682" d="M-8.781394327747926e-15,47.80368420708118A47.80368420708118,47.80368420708118,0,1,1,8.781394327747926e-15,-47.80368420708118A47.80368420708118,47.80368420708118,0,1,1,-8.781394327747926e-15,47.80368420708118Z" fill="none" stroke="#ccc"/><text fill="black" text-anchor="middle" font-family="'Arial', sans-serif" font-size="8" dominant-baseline="middle"><textPath href="#p_1281.8263936863682" startOffset="50%">Russia</textPath></text></g><g transform="translate(749.6019228712123,566.6301827972878)" id="Turkey"><path id="p_1348.2490491998383" d="M-5.6977200922481295e-15,31.016943531338203A31.016943531338203,31.016943531338203,0,1,1,5.6977200922481295e-15,-31.016943531338203A31.016943531338203,31.016943531338203,0,1,1,-5.6977200922481295e-15,31.016943531338203Z" fill="none" stroke="#ccc"/><text fill="black" text-anchor="middle" font-family="'Arial', sans-serif" font-size="8" dominant-baseline="middle"><textPath href="#p_1348.2490491998383" startOffset="50%">Turkey</textPath></text></g><g transform="translate(721.9431979853563,620.7014885060441)" id="United Kingdom"><path id="p_1368.973735259281" d="M-4.652870774854793e-15,25.329048767880412A25.329048767880412,25.329048767880412,0,1,1,4.652870774854793e-15,-25.329048767880412A25.329048767880412,25.329048767880412,0,1,1,-4.652870774854793e-15,25.329048767880412Z" fill="none" stroke="#ccc"/><text fill="black" text-anchor="middle" font-family="'Arial', sans-serif" font-size="8" dominant-baseline="middle"><textPath href="#p_1368.973735259281" startOffset="50%">United Kingdom</textPath></text></g><g transform="translate(720.4259532194258,522.1274543233166)" id="Germany"><path id="p_1261.361697916663" d="M-3.2713298707062907e-15,17.8082903739207A17.8082903739207,17.8082903739207,0,1,1,3.2713298707062907e-15,-17.8082903739207A17.8082903739207,17.8082903739207,0,1,1,-3.2713298707062907e-15,17.8082903739207Z" fill="none" stroke="#ccc"/><text fill="black" text-anchor="middle" font-family="'Arial', sans-serif" font-size="8" dominant-baseline="middle"><textPath href="#p_1261.361697916663" startOffset="50%">Germany</textPath></text></g><g transform="translate(687.5505669909073,500.7115303451714)" id="Spain"><path id="p_1206.300645037987" d="M-3.1299304357891893e-15,17.038547701908115A17.038547701908115,17.038547701908115,0,1,1,3.1299304357891893e-15,-17.038547701908115A17.038547701908115,17.038547701908115,0,1,1,-3.1299304357891893e-15,17.038547701908115Z" fill="none" stroke="#ccc"/><text fill="black" text-anchor="middle" font-family="'Arial', sans-serif" font-size="8" dominant-baseline="middle"><textPath href="#p_1206.300645037987" startOffset="50%">Spain</textPath></text></g><g transform="translate(677.781135247522,634.3889750500116)" id="Ukraine"><path id="p_1329.6868588619582" d="M-3.03407748926165e-15,16.516748564424688A16.516748564424688,16.516748564424688,0,1,1,3.03407748926165e-15,-16.516748564424688A16.516748564424688,16.516748564424688,0,1,1,-3.03407748926165e-15,16.516748564424688Z" fill="none" stroke="#ccc"/><text fill="black" text-anchor="middle" font-family="'Arial', sans-serif" font-size="8" dominant-baseline="middle"><textPath href="#p_1329.6868588619582" startOffset="50%">Ukraine</textPath></text></g><g transform="translate(758.5019475947956,515.5514182526023)" id="Italy"><path id="p_1291.4959964375391" d="M-3.02046223826685e-15,16.442630590141384A16.442630590141384,16.442630590141384,0,1,1,3.02046223826685e-15,-16.442630590141384A16.442630590141384,16.442630590141384,0,1,1,-3.02046223826685e-15,16.442630590141384Z" fill="none" stroke="#ccc"/><text fill="black" text-anchor="middle" font-family="'Arial', sans-serif" font-size="8" dominant-baseline="middle"><textPath href="#p_1291.4959964375391" startOffset="50%">Italy</textPath></text></g><g transform="translate(766.2271379476956,614.2507204038277)" id="France"><path id="p_1396.5113511438046" d="M-2.7616078242108136e-15,15.033492792281294A15.033492792281294,15.033492792281294,0,1,1,2.7616078242108136e-15,-15.033492792281294A15.033492792281294,15.033492792281294,0,1,1,-2.7616078242108136e-15,15.033492792281294Z" fill="none" stroke="#ccc"/><text fill="black" text-anchor="middle" font-family="'Arial', sans-serif" font-size="8" dominant-baseline="middle"><textPath href="#p_1396.5113511438046" startOffset="50%">France</textPath></text></g><g transform="translate(651.8219219040257,501.7373578233733)" id="Belarus"><path id="p_1168.875332215039" d="M-2.6298161783120894e-15,14.316052487640082A14.316052487640082,14.316052487640082,0,1,1,2.6298161783120894e-15,-14.316052487640082A14.316052487640082,14.316052487640082,0,1,1,-2.6298161783120894e-15,14.316052487640082Z" fill="none" stroke="#ccc"/><text fill="black" text-anchor="middle" font-family="'Arial', sans-serif" font-size="8" dominant-baseline="middle"><textPath href="#p_1168.875332215039" startOffset="50%">Belarus</textPath></text></g><g transform="translate(678.1852275961617,185.31811156687246)" id="Brazil"><path id="p_917.8590659375365" d="M-9.801288001586262e-15,53.35572677450239A53.35572677450239,53.35572677450239,0,1,1,9.801288001586262e-15,-53.35572677450239A53.35572677450239,53.35572677450239,0,1,1,-9.801288001586262e-15,53.35572677450239Z" fill="none" stroke="#ccc"/><text fill="black" text-anchor="middle" font-family="'Arial', sans-serif" font-size="8" dominant-baseline="middle"><textPath href="#p_917.8590659375365" startOffset="50%">Brazil</textPath></text></g><g transform="translate(761.5235064880604,185.31811156687246)" id="Peru"><path id="p_973.4354017215355" d="M-4.701501786806206e-15,25.59378366660262A25.59378366660262,25.59378366660262,0,1,1,4.701501786806206e-15,-25.59378366660262A25.59378366660262,25.59378366660262,0,1,1,-4.701501786806206e-15,25.59378366660262Z" fill="none" stroke="#ccc"/><text fill="black" text-anchor="middle" font-family="'Arial', sans-serif" font-size="8" dominant-baseline="middle"><textPath href="#p_973.4354017215355" startOffset="50%">Peru</textPath></text></g><g transform="translate(742.5697392055381,236.21133419884973)" id="Colombia"><path id="p_1004.1065814997077" d="M-4.4685233439849684e-15,24.32550809531983A24.32550809531983,24.32550809531983,0,1,1,4.4685233439849684e-15,-24.32550809531983A24.32550809531983,24.32550809531983,0,1,1,-4.4685233439849684e-15,24.32550809531983Z" fill="none" stroke="#ccc"/><text fill="black" text-anchor="middle" font-family="'Arial', sans-serif" font-size="8" dominant-baseline="middle"><textPath href="#p_1004.1065814997077" startOffset="50%">Colombia</textPath></text></g><g transform="translate(741.4867950203427,138.3567870973068)" id="Chile"><path id="p_901.9182116927084" d="M-3.871346647846809e-15,21.07462957505893A21.07462957505893,21.07462957505893,0,1,1,3.871346647846809e-15,-21.07462957505893A21.07462957505893,21.07462957505893,0,1,1,-3.871346647846809e-15,21.07462957505893Z" fill="none" stroke="#ccc"/><text fill="black" text-anchor="middle" font-family="'Arial', sans-serif" font-size="8" dominant-baseline="middle"><textPath href="#p_901.9182116927084" startOffset="50%">Chile</textPath></text></g><g transform="translate(705.4212779775743,115.40633542659187)" id="Venezuela"><path id="p_839.1128381801306" d="M-3.1752442791640835e-15,17.285224775964316A17.285224775964316,17.285224775964316,0,1,1,3.1752442791640835e-15,-17.285224775964316A17.285224775964316,17.285224775964316,0,1,1,-3.1752442791640835e-15,17.285224775964316Z" fill="none" stroke="#ccc"/><text fill="black" text-anchor="middle" font-family="'Arial', sans-serif" font-size="8" dominant-baseline="middle"><textPath href="#p_839.1128381801306" startOffset="50%">Venezuela</textPath></text></g><g transform="translate(701.61466238578,256.1005558656941)" id="Argentina"><path id="p_975.530047295358" d="M-3.0888339850203682e-15,16.81482904388397A16.81482904388397,16.81482904388397,0,1,1,3.0888339850203682e-15,-16.81482904388397A16.81482904388397,16.81482904388397,0,1,1,-3.0888339850203682e-15,16.81482904388397Z" fill="none" stroke="#ccc"/><text fill="black" text-anchor="middle" font-family="'Arial', sans-serif" font-size="8" dominant-baseline="middle"><textPath href="#p_975.530047295358" startOffset="50%">Argentina</textPath></text></g><g transform="translate(493.3826814824032,110.2481825731255)" id="United States"><path id="p_651.8053950491836" d="M-8.66582075739856e-15,47.17453099365489A47.17453099365489,47.17453099365489,0,1,1,8.66582075739856e-15,-47.17453099365489A47.17453099365489,47.17453099365489,0,1,1,-8.66582075739856e-15,47.17453099365489Z" fill="none" stroke="#ccc"/><text fill="black" text-anchor="middle" font-family="'Arial', sans-serif" font-size="8" dominant-baseline="middle"><textPath href="#p_651.8053950491836" startOffset="50%">United States</textPath></text></g><g transform="translate(581.972487679778,110.2481825731255)" id="Mexico"><path id="p_730.2471770058297" d="M-6.801658946786821e-15,37.0265067529261A37.0265067529261,37.0265067529261,0,1,1,6.801658946786821e-15,-37.0265067529261A37.0265067529261,37.0265067529261,0,1,1,-6.801658946786821e-15,37.0265067529261Z" fill="none" stroke="#ccc"/><text fill="black" text-anchor="middle" font-family="'Arial', sans-serif" font-size="8" dominant-baseline="middle"><textPath href="#p_730.2471770058297" startOffset="50%">Mexico</textPath></text></g><g transform="translate(546.2047631742988,169.68167385149465)" id="Canada"><path id="p_744.8373639801551" d="M-5.134501984179068e-15,27.950926954361634A27.950926954361634,27.950926954361634,0,1,1,5.134501984179068e-15,-27.950926954361634A27.950926954361634,27.950926954361634,0,1,1,-5.134501984179068e-15,27.950926954361634Z" fill="none" stroke="#ccc"/><text fill="black" text-anchor="middle" font-family="'Arial', sans-serif" font-size="8" dominant-baseline="middle"><textPath href="#p_744.8373639801551" startOffset="50%">Canada</textPath></text></g><g transform="translate(544.6909303615132,68.26010623703795)" id="Cuba"><path id="p_628.6865678937603" d="M-2.7068731851620375e-15,14.735531295209189A14.735531295209189,14.735531295209189,0,1,1,2.7068731851620375e-15,-14.735531295209189A14.735531295209189,14.735531295209189,0,1,1,-2.7068731851620375e-15,14.735531295209189Z" fill="none" stroke="#ccc"/><text fill="black" text-anchor="middle" font-family="'Arial', sans-serif" font-size="8" dominant-baseline="middle"><textPath href="#p_628.6865678937603" startOffset="50%">Cuba</textPath></text></g><g transform="translate(445.3016766560855,370.95398340968023)" id="Shanghai"><path id="p_852.2740940644982" d="M-6.432781966155091e-15,35.018433998732505A35.018433998732505,35.018433998732505,0,1,1,6.432781966155091e-15,-35.018433998732505A35.018433998732505,35.018433998732505,0,1,1,-6.432781966155091e-15,35.018433998732505Z" fill="rgb(248, 142, 83)" stroke="none"/></g><g transform="translate(517.6896448562813,370.95398340968023)" id="Beijing"><path id="p_922.6243940166311" d="M-6.0584683814979186e-15,32.980765750669555A32.980765750669555,32.980765750669555,0,1,1,6.0584683814979186e-15,-32.980765750669555A32.980765750669555,32.980765750669555,0,1,1,-6.0584683814979186e-15,32.980765750669555Z" fill="rgb(248, 142, 83)" stroke="none"/></g><g transform="translate(483.35657820566905,426.2527981949833)" id="Tianjin"><path id="p_938.3299211843511" d="M-5.092181465996623e-15,27.720544783698713A27.720544783698713,27.720544783698713,0,1,1,5.092181465996623e-15,-27.720544783698713A27.720544783698713,27.720544783698713,0,1,1,-5.092181465996623e-15,27.720544783698713Z" fill="rgb(248, 142, 83)" stroke="none"/></g><g transform="translate(483.30013294218645,318.06672744184954)" id="Guangzhou"><path id="p_828.0821926205427" d="M-4.723829896867292e-15,25.71533223650665A25.71533223650665,25.71533223650665,0,1,1,4.723829896867292e-15,-25.71533223650665A25.71533223650665,25.71533223650665,0,1,1,-4.723829896867292e-15,25.71533223650665Z" fill="rgb(248, 142, 83)" stroke="none"/></g><g transform="translate(430.769387755148,310.258477430536)" id="Shenzhen"><path id="p_765.0316542902473" d="M-4.225727504274614e-15,23.00378910456321A23.00378910456321,23.00378910456321,0,1,1,4.225727504274614e-15,-23.00378910456321A23.00378910456321,23.00378910456321,0,1,1,-4.225727504274614e-15,23.00378910456321Z" fill="rgb(248, 142, 83)" stroke="none"/></g><g transform="translate(593.0100435943195,368.8142359278038)" id="Delhi"><path id="p_991.9568418469154" d="M-5.351564880302595e-15,29.132562324792A29.132562324792,29.132562324792,0,1,1,5.351564880302595e-15,-29.132562324792A29.132562324792,29.132562324792,0,1,1,-5.351564880302595e-15,29.132562324792Z" fill="rgb(248, 142, 83)" stroke="none"/></g><g transform="translate(651.611607863349,368.8142359278038)" id="Mumbai"><path id="p_1046.5060772845966" d="M-4.607164150442106e-15,25.08023349344368A25.08023349344368,25.08023349344368,0,1,1,4.607164150442106e-15,-25.08023349344368A25.08023349344368,25.08023349344368,0,1,1,-4.607164150442106e-15,25.08023349344368Z" fill="rgb(248, 142, 83)" stroke="none"/></g><g transform="translate(565.7643542672834,457.4264850912516)" id="Karachi"><path id="p_1058.6586658640038" d="M-6.331637010523282e-15,34.4678265054687A34.4678265054687,34.4678265054687,0,1,1,6.331637010523282e-15,-34.4678265054687A34.4678265054687,34.4678265054687,0,1,1,-6.331637010523282e-15,34.4678265054687Z" fill="rgb(248, 142, 83)" stroke="none"/></g><g transform="translate(564.0456073965406,291.36875146042405)" id="Tokyo"><path id="p_882.5520757824321" d="M-4.801420705468991e-15,26.137716925467423A26.137716925467423,26.137716925467423,0,1,1,4.801420705468991e-15,-26.137716925467423A26.137716925467423,26.137716925467423,0,1,1,-4.801420705468991e-15,26.137716925467423Z" fill="rgb(248, 142, 83)" stroke="none"/></g><g transform="translate(513.7398894668274,255.34673829177805)" id="Jakarta"><path id="p_792.6554645479273" d="M-4.1458280601783e-15,22.568836789321825A22.568836789321825,22.568836789321825,0,1,1,4.1458280601783e-15,-22.568836789321825A22.568836789321825,22.568836789321825,0,1,1,-4.1458280601783e-15,22.568836789321825Z" fill="rgb(248, 142, 83)" stroke="none"/></g><g transform="translate(749.7903736893008,370.20247145993415)" id="Lagos"><path id="p_1150.8030319296008" d="M-5.476042473383958e-15,29.8101867803658A29.8101867803658,29.8101867803658,0,1,1,5.476042473383958e-15,-29.8101867803658A29.8101867803658,29.8101867803658,0,1,1,-5.476042473383958e-15,29.8101867803658Z" fill="rgb(158, 1, 66)" stroke="none"/></g><g transform="translate(816.3497028332578,370.20247145993415)" id="Cairo"><path id="p_1211.1350113044016" d="M-4.332096879088735e-15,23.582837011209598A23.582837011209598,23.582837011209598,0,1,1,4.332096879088735e-15,-23.582837011209598A23.582837011209598,23.582837011209598,0,1,1,-4.332096879088735e-15,23.582837011209598Z" fill="rgb(158, 1, 66)" stroke="none"/></g><g transform="translate(859.2136771504788,370.20247145993415)" id="Alexandria"><path id="p_1245.3085174656308" d="M-2.7356837775396107e-15,14.892368855217686A14.892368855217686,14.892368855217686,0,1,1,2.7356837775396107e-15,-14.892368855217686A14.892368855217686,14.892368855217686,0,1,1,-2.7356837775396107e-15,14.892368855217686Z" fill="rgb(158, 1, 66)" stroke="none"/></g><g transform="translate(782.5979136641616,425.16963410292067)" id="Kinshasa-Brazzaville"><path id="p_1229.8045202197065" d="M-3.864429146678602e-15,21.036972452624262A21.036972452624262,21.036972452624262,0,1,1,3.864429146678602e-15,-21.036972452624262A21.036972452624262,21.036972452624262,0,1,1,-3.864429146678602e-15,21.036972452624262Z" fill="rgb(158, 1, 66)" stroke="none"/></g><g transform="translate(783.0036904945266,319.1709777821304)" id="Mogadishu"><path id="p_1121.0860875893848" d="M-3.2902743494277194e-15,17.911419312727755A17.911419312727755,17.911419312727755,0,1,1,3.2902743494277194e-15,-17.911419312727755A17.911419312727755,17.911419312727755,0,1,1,-3.2902743494277194e-15,17.911419312727755Z" fill="rgb(158, 1, 66)" stroke="none"/></g><g transform="translate(830.6907281012345,440.15447095235476)" id="Khartoum-Omdurman"><path id="p_1288.015169465101" d="M-2.9703753760147848e-15,16.169970411511716A16.169970411511716,16.169970411511716,0,1,1,2.9703753760147848e-15,-16.169970411511716A16.169970411511716,16.169970411511716,0,1,1,-2.9703753760147848e-15,16.169970411511716Z" fill="rgb(158, 1, 66)" stroke="none"/></g><g transform="translate(826.0229903618268,301.2317577235878)" id="Luanda"><path id="p_1143.7868483221596" d="M-2.8532005258448458e-15,15.532100236745023A15.532100236745023,15.532100236745023,0,1,1,2.8532005258448458e-15,-15.532100236745023A15.532100236745023,15.532100236745023,0,1,1,-2.8532005258448458e-15,15.532100236745023Z" fill="rgb(158, 1, 66)" stroke="none"/></g><g transform="translate(737.3969128612775,313.7153841113702)" id="Dar es Salaam"><path id="p_1066.9664965910808" d="M-2.7286722024914805e-15,14.854199618433052A14.854199618433052,14.854199618433052,0,1,1,2.7286722024914805e-15,-14.854199618433052A14.854199618433052,14.854199618433052,0,1,1,-2.7286722024914805e-15,14.854199618433052Z" fill="rgb(158, 1, 66)" stroke="none"/></g><g transform="translate(733.9543246219114,425.39275703471725)" id="Abidjan"><path id="p_1174.787904611674" d="M-2.652736141342508e-15,14.440822955045467A14.440822955045467,14.440822955045467,0,1,1,2.652736141342508e-15,-14.440822955045467A14.440822955045467,14.440822955045467,0,1,1,-2.652736141342508e-15,14.440822955045467Z" fill="rgb(158, 1, 66)" stroke="none"/></g><g transform="translate(867.0265289433919,311.70326899440505)" id="Greater Johannesburg"><path id="p_1193.3509235902231" d="M-2.5021601896541196e-15,13.62112565242605A13.62112565242605,13.62112565242605,0,1,1,2.5021601896541196e-15,-13.62112565242605A13.62112565242605,13.62112565242605,0,1,1,-2.5021601896541196e-15,13.62112565242605Z" fill="rgb(158, 1, 66)" stroke="none"/></g><g transform="translate(647.9444593376418,566.6301827972878)" id="Moscow"><path id="p_1240.5414905468594" d="M-4.5863356488700825e-15,24.966848411929973A24.966848411929973,24.966848411929973,0,1,1,4.5863356488700825e-15,-24.966848411929973A24.966848411929973,24.966848411929973,0,1,1,-4.5863356488700825e-15,24.966848411929973Z" fill="rgb(251, 248, 176)" stroke="none"/></g><g transform="translate(693.553759319326,566.6301827972878)" id="Saint Petersburg"><path id="p_1277.4376252355742" d="M-2.98575315089854e-15,16.25368311896044A16.25368311896044,16.25368311896044,0,1,1,2.98575315089854e-15,-16.25368311896044A16.25368311896044,16.25368311896044,0,1,1,-2.98575315089854e-15,16.25368311896044Z" fill="rgb(251, 248, 176)" stroke="none"/></g><g transform="translate(749.6019228712123,566.6301827972878)" id="Istanbul"><path id="p_1343.8602807490445" d="M-4.891516406928595e-15,26.62817508054436A26.62817508054436,26.62817508054436,0,1,1,4.891516406928595e-15,-26.62817508054436A26.62817508054436,26.62817508054436,0,1,1,-4.891516406928595e-15,26.62817508054436Z" fill="rgb(251, 248, 176)" stroke="none"/></g><g transform="translate(721.9431979853563,620.7014885060441)" id="London"><path id="p_1364.584966808487" d="M-3.846667089535258e-15,20.940280317086568A20.940280317086568,20.940280317086568,0,1,1,3.846667089535258e-15,-20.940280317086568A20.940280317086568,20.940280317086568,0,1,1,-3.846667089535258e-15,20.940280317086568Z" fill="rgb(251, 248, 176)" stroke="none"/></g><g transform="translate(720.4259532194258,522.1274543233166)" id="Berlin"><path id="p_1256.9729294658691" d="M-2.4651261853867554e-15,13.419521923126855A13.419521923126855,13.419521923126855,0,1,1,2.4651261853867554e-15,-13.419521923126855A13.419521923126855,13.419521923126855,0,1,1,-2.4651261853867554e-15,13.419521923126855Z" fill="rgb(251, 248, 176)" stroke="none"/></g><g transform="translate(687.5505669909073,500.7115303451714)" id="Madrid"><path id="p_1201.911876587193" d="M-2.323726750469654e-15,12.649779251114271A12.649779251114271,12.649779251114271,0,1,1,2.323726750469654e-15,-12.649779251114271A12.649779251114271,12.649779251114271,0,1,1,-2.323726750469654e-15,12.649779251114271Z" fill="rgb(251, 248, 176)" stroke="none"/></g><g transform="translate(677.781135247522,634.3889750500116)" id="Kiev"><path id="p_1325.2980904111644" d="M-2.227873803942115e-15,12.127980113630844A12.127980113630844,12.127980113630844,0,1,1,2.227873803942115e-15,-12.127980113630844A12.127980113630844,12.127980113630844,0,1,1,-2.227873803942115e-15,12.127980113630844Z" fill="rgb(251, 248, 176)" stroke="none"/></g><g transform="translate(758.5019475947956,515.5514182526023)" id="Rome"><path id="p_1287.1072279867453" d="M-2.214258552947315e-15,12.053862139347542A12.053862139347542,12.053862139347542,0,1,1,2.214258552947315e-15,-12.053862139347542A12.053862139347542,12.053862139347542,0,1,1,-2.214258552947315e-15,12.053862139347542Z" fill="rgb(251, 248, 176)" stroke="none"/></g><g transform="translate(766.2271379476956,614.2507204038277)" id="Paris"><path id="p_1392.1225826930108" d="M-1.9554041388912787e-15,10.644724341487452A10.644724341487452,10.644724341487452,0,1,1,1.9554041388912787e-15,-10.644724341487452A10.644724341487452,10.644724341487452,0,1,1,-1.9554041388912787e-15,10.644724341487452Z" fill="rgb(251, 248, 176)" stroke="none"/></g><g transform="translate(651.8219219040257,501.7373578233733)" id="Minsk"><path id="p_1164.4865637642451" d="M-1.8236124929925545e-15,9.92728403684624A9.92728403684624,9.92728403684624,0,1,1,1.8236124929925545e-15,-9.92728403684624A9.92728403684624,9.92728403684624,0,1,1,-1.8236124929925545e-15,9.92728403684624Z" fill="rgb(251, 248, 176)" stroke="none"/></g><g transform="translate(661.5058096235939,190.68817739461528)" id="São Paulo"><path id="p_877.791295181475" d="M-4.518452206467674e-15,24.597308163265776A24.597308163265776,24.597308163265776,0,1,1,4.518452206467674e-15,-24.597308163265776A24.597308163265776,24.597308163265776,0,1,1,-4.518452206467674e-15,24.597308163265776Z" fill="rgb(94, 79, 162)" stroke="none"/></g><g transform="translate(708.5867177768354,190.68817739461528)" id="Rio de Janeiro"><path id="p_918.3697267106326" d="M-3.3239666288354477e-15,18.09483153918187A18.09483153918187,18.09483153918187,0,1,1,3.3239666288354477e-15,-18.09483153918187A18.09483153918187,18.09483153918187,0,1,1,-3.3239666288354477e-15,18.09483153918187Z" fill="rgb(94, 79, 162)" stroke="none"/></g><g transform="translate(690.2789386878512,220.08985491850004)" id="Salvador"><path id="p_923.5209181849414" d="M-2.2323090702015322e-15,12.152124578590076A12.152124578590076,12.152124578590076,0,1,1,2.2323090702015322e-15,-12.152124578590076A12.152124578590076,12.152124578590076,0,1,1,-2.2323090702015322e-15,12.152124578590076Z" fill="rgb(94, 79, 162)" stroke="none"/></g><g transform="translate(690.2771401871913,161.30296165887236)" id="Brasília"><path id="p_864.7192044563667" d="M-2.229916973434333e-15,12.139102610303032A12.139102610303032,12.139102610303032,0,1,1,2.229916973434333e-15,-12.139102610303032A12.139102610303032,12.139102610303032,0,1,1,-2.229916973434333e-15,12.139102610303032Z" fill="rgb(94, 79, 162)" stroke="none"/></g><g transform="translate(664.5289314759144,150.36992172395085)" id="Fortaleza"><path id="p_827.3442124502297" d="M-2.1024783856575725e-15,11.44535925036454A11.44535925036454,11.44535925036454,0,1,1,2.1024783856575725e-15,-11.44535925036454A11.44535925036454,11.44535925036454,0,1,1,-2.1024783856575725e-15,11.44535925036454Z" fill="rgb(94, 79, 162)" stroke="none"/></g><g transform="translate(761.5235064880604,185.31811156687246)" id="Lima"><path id="p_969.0466332707417" d="M-3.8952981014866695e-15,21.20501521580877A21.20501521580877,21.20501521580877,0,1,1,3.8952981014866695e-15,-21.20501521580877A21.20501521580877,21.20501521580877,0,1,1,-3.8952981014866695e-15,21.20501521580877Z" fill="rgb(94, 79, 162)" stroke="none"/></g><g transform="translate(742.5697392055381,236.21133419884973)" id="Bogotá"><path id="p_999.7178130489139" d="M-3.662319658665433e-15,19.936739644525982A19.936739644525982,19.936739644525982,0,1,1,3.662319658665433e-15,-19.936739644525982A19.936739644525982,19.936739644525982,0,1,1,-3.662319658665433e-15,19.936739644525982Z" fill="rgb(94, 79, 162)" stroke="none"/></g><g transform="translate(741.4867950203427,138.3567870973068)" id="Santiago"><path id="p_897.5294432419146" d="M-3.0651429625272735e-15,16.685861124265084A16.685861124265084,16.685861124265084,0,1,1,3.0651429625272735e-15,-16.685861124265084A16.685861124265084,16.685861124265084,0,1,1,-3.0651429625272735e-15,16.685861124265084Z" fill="rgb(94, 79, 162)" stroke="none"/></g><g transform="translate(705.4212779775743,115.40633542659187)" id="Caracas"><path id="p_834.7240697293366" d="M-2.369040593844548e-15,12.89645632517047A12.89645632517047,12.89645632517047,0,1,1,2.369040593844548e-15,-12.89645632517047A12.89645632517047,12.89645632517047,0,1,1,-2.369040593844548e-15,12.89645632517047Z" fill="rgb(94, 79, 162)" stroke="none"/></g><g transform="translate(701.61466238578,256.1005558656941)" id="Buenos Aires"><path id="p_971.1412788445642" d="M-2.2826302997008325e-15,12.426060593090126A12.426060593090126,12.426060593090126,0,1,1,2.2826302997008325e-15,-12.426060593090126A12.426060593090126,12.426060593090126,0,1,1,-2.2826302997008325e-15,12.426060593090126Z" fill="rgb(94, 79, 162)" stroke="none"/></g><g transform="translate(478.9331681204858,112.4940272544676)" id="New York City"><path id="p_613.2180963613104" d="M-3.819226551649746e-15,20.79090098635699A20.79090098635699,20.79090098635699,0,1,1,3.819226551649746e-15,-20.79090098635699A20.79090098635699,20.79090098635699,0,1,1,-3.819226551649746e-15,20.79090098635699Z" fill="rgb(137, 207, 165)" stroke="none"/></g><g transform="translate(518.283109686163,112.4940272544676)" id="Los Angeles"><path id="p_645.9474090691571" d="M-2.6030367607870213e-15,14.1702721285264A14.1702721285264,14.1702721285264,0,1,1,2.6030367607870213e-15,-14.1702721285264A14.1702721285264,14.1702721285264,0,1,1,-2.6030367607870213e-15,14.1702721285264Z" fill="rgb(137, 207, 165)" stroke="none"/></g><g transform="translate(504.26082241521294,139.33903034663035)" id="Chicago"><path id="p_656.3274219519785" d="M-2.154319510571735e-15,11.727569190135238A11.727569190135238,11.727569190135238,0,1,1,2.154319510571735e-15,-11.727569190135238A11.727569190135238,11.727569190135238,0,1,1,-2.154319510571735e-15,11.727569190135238Z" fill="rgb(137, 207, 165)" stroke="none"/></g><g transform="translate(504.10042661870597,86.81731597573045)" id="Houston"><path id="p_602.6919937002231" d="M-1.9791978194867173e-15,10.774251105786648A10.774251105786648,10.774251105786648,0,1,1,1.9791978194867173e-15,-10.774251105786648A10.774251105786648,10.774251105786648,0,1,1,-1.9791978194867173e-15,10.774251105786648Z" fill="rgb(137, 207, 165)" stroke="none"/></g><g transform="translate(481.5147988376785,78.51051990227316)" id="Philadelphia"><path id="p_569.9270751696364" d="M-1.6352261277604105e-15,8.9017564296847A8.9017564296847,8.9017564296847,0,1,1,1.6352261277604105e-15,-8.9017564296847A8.9017564296847,8.9017564296847,0,1,1,-1.6352261277604105e-15,8.9017564296847Z" fill="rgb(137, 207, 165)" stroke="none"/></g><g transform="translate(570.5686412079508,110.2481825731255)" id="Mexico City"><path id="p_703.0507156113813" d="M-3.900602649513625e-15,21.233891830305016A21.233891830305016,21.233891830305016,0,1,1,3.900602649513625e-15,-21.233891830305016A21.233891830305016,21.233891830305016,0,1,1,-3.900602649513625e-15,21.233891830305016Z" fill="rgb(137, 207, 165)" stroke="none"/></g><g transform="translate(605.40076373548,110.2481825731255)" id="Ecatepec de Morelos"><path id="p_725.8584085550359" d="M-1.6917507692938935e-15,9.209462246430325A9.209462246430325,9.209462246430325,0,1,1,1.6917507692938935e-15,-9.209462246430325A9.209462246430325,9.209462246430325,0,1,1,-1.6917507692938935e-15,9.209462246430325Z" fill="rgb(137, 207, 165)" stroke="none"/></g><g transform="translate(534.5963585124813,169.68167385149465)" id="Toronto"><path id="p_717.2317862057262" d="M-2.1958689570142188e-15,11.953753841750228A11.953753841750228,11.953753841750228,0,1,1,2.1958689570142188e-15,-11.953753841750228A11.953753841750228,11.953753841750228,0,1,1,-2.1958689570142188e-15,11.953753841750228Z" fill="rgb(137, 207, 165)" stroke="none"/></g><g transform="translate(560.3529012414459,169.68167385149465)" id="Montreal"><path id="p_740.4485955293612" d="M-1.7293274991855462e-15,9.414020436420643A9.414020436420643,9.414020436420643,0,1,1,1.7293274991855462e-15,-9.414020436420643A9.414020436420643,9.414020436420643,0,1,1,-1.7293274991855462e-15,9.414020436420643Z" fill="rgb(137, 207, 165)" stroke="none"/></g><g transform="translate(544.6909303615132,68.26010623703795)" id="Havana"><path id="p_624.2977994429665" d="M-1.9006694998425022e-15,10.346762844415345A10.346762844415345,10.346762844415345,0,1,1,1.9006694998425022e-15,-10.346762844415345A10.346762844415345,10.346762844415345,0,1,1,-1.9006694998425022e-15,10.346762844415345Z" fill="rgb(137, 207, 165)" stroke="none"/></g></g><g id="labels"><g transform="translate(445.3016766560855,370.95398340968023)"><text text-anchor="middle" dominant-baseline="text-before-edge" transform="translate(0,-5.599999904632568)" style="opacity: 1;"><tspan x="0" y="0" dy="0" style="font-family: Arial, sans-serif; font-size: 10px; fill: black; font-weight: bold;">Shanghai</tspan></text></g><g transform="translate(517.6896448562813,370.95398340968023)"><text text-anchor="middle" dominant-baseline="text-before-edge" transform="translate(0,-5.599999904632568)" style="opacity: 1;"><tspan x="0" y="0" dy="0" style="font-family: Arial, sans-serif; font-size: 10px; fill: black; font-weight: bold;">Beijing</tspan></text></g><g transform="translate(483.35657820566905,426.2527981949833)"><text text-anchor="middle" dominant-baseline="text-before-edge" transform="translate(0,-5.599999904632568)" style="opacity: 1;"><tspan x="0" y="0" dy="0" style="font-family: Arial, sans-serif; font-size: 10px; fill: black; font-weight: bold;">Tianjin</tspan></text></g><g transform="translate(483.30013294218645,318.06672744184954)"><text text-anchor="middle" dominant-baseline="text-before-edge" transform="translate(0,-5.599999904632568)" style="opacity: 1;"><tspan x="0" y="0" dy="0" style="font-family: Arial, sans-serif; font-size: 10px; fill: black; font-weight: bold;">Guangzhou</tspan></text></g><g transform="translate(430.769387755148,310.258477430536)"><text text-anchor="middle" dominant-baseline="text-before-edge" transform="translate(0,-5.599999904632568)" style="opacity: 1;"><tspan x="0" y="0" dy="0" style="font-family: Arial, sans-serif; font-size: 10px; fill: black; font-weight: bold;">Shenzhen</tspan></text></g><g transform="translate(593.0100435943195,368.8142359278038)"><text text-anchor="middle" dominant-baseline="text-before-edge" transform="translate(0,-5.599999904632568)" style="opacity: 1;"><tspan x="0" y="0" dy="0" style="font-family: Arial, sans-serif; font-size: 10px; fill: black; font-weight: bold;">Delhi</tspan></text></g><g transform="translate(651.611607863349,368.8142359278038)"><text text-anchor="middle" dominant-baseline="text-before-edge" transform="translate(0,-5.599999904632568)" style="opacity: 1;"><tspan x="0" y="0" dy="0" style="font-family: Arial, sans-serif; font-size: 10px; fill: black; font-weight: bold;">Mumbai</tspan></text></g><g transform="translate(565.7643542672834,457.4264850912516)"><text text-anchor="middle" dominant-baseline="text-before-edge" transform="translate(0,-5.599999904632568)" style="opacity: 1;"><tspan x="0" y="0" dy="0" style="font-family: Arial, sans-serif; font-size: 10px; fill: black; font-weight: bold;">Karachi</tspan></text></g><g transform="translate(564.0456073965406,291.36875146042405)"><text text-anchor="middle" dominant-baseline="text-before-edge" transform="translate(0,-5.599999904632568)" style="opacity: 1;"><tspan x="0" y="0" dy="0" style="font-family: Arial, sans-serif; font-size: 10px; fill: black; font-weight: bold;">Tokyo</tspan></text></g><g transform="translate(513.7398894668274,255.34673829177805)"><text text-anchor="middle" dominant-baseline="text-before-edge" transform="translate(0,-5.599999904632568)" style="opacity: 1;"><tspan x="0" y="0" dy="0" style="font-family: Arial, sans-serif; font-size: 10px; fill: black; font-weight: bold;">Jakarta</tspan></text></g><g transform="translate(749.7903736893008,370.20247145993415)"><text text-anchor="middle" dominant-baseline="text-before-edge" transform="translate(0,-5.599999904632568)" style="opacity: 1;"><tspan x="0" y="0" dy="0" style="font-family: Arial, sans-serif; font-size: 10px; fill: black; font-weight: bold;">Lagos</tspan></text></g><g transform="translate(816.3497028332578,370.20247145993415)"><text text-anchor="middle" dominant-baseline="text-before-edge" transform="translate(0,-5.599999904632568)" style="opacity: 1;"><tspan x="0" y="0" dy="0" style="font-family: Arial, sans-serif; font-size: 10px; fill: black; font-weight: bold;">Cairo</tspan></text></g><g transform="translate(859.2136771504788,370.20247145993415)"><text text-anchor="middle" dominant-baseline="text-before-edge" transform="translate(0,-5.599999904632568)" style="opacity: 1;"><tspan x="0" y="0" dy="0" style="font-family: Arial, sans-serif; font-size: 10px; fill: black; font-weight: bold;">Alexandria</tspan></text></g><g transform="translate(782.5979136641616,425.16963410292067)"><text text-anchor="middle" dominant-baseline="text-before-edge" transform="translate(0,-5.599999904632568)" style="opacity: 1;"><tspan x="0" y="0" dy="0" style="font-family: Arial, sans-serif; font-size: 10px; fill: black; font-weight: bold;">Kinshasa-Brazzaville</tspan></text></g><g transform="translate(783.0036904945266,319.1709777821304)"><text text-anchor="middle" dominant-baseline="text-before-edge" transform="translate(0,-5.599999904632568)" style="opacity: 1;"><tspan x="0" y="0" dy="0" style="font-family: Arial, sans-serif; font-size: 10px; fill: black; font-weight: bold;">Mogadishu</tspan></text></g><g transform="translate(830.6907281012345,440.15447095235476)"><text text-anchor="middle" dominant-baseline="text-before-edge" transform="translate(0,-5.599999904632568)" style="opacity: 1;"><tspan x="0" y="0" dy="0" style="font-family: Arial, sans-serif; font-size: 10px; fill: black; font-weight: bold;">Khartoum-Omdurman</tspan></text></g><g transform="translate(826.0229903618268,301.2317577235878)"><text text-anchor="middle" dominant-baseline="text-before-edge" transform="translate(0,-5.599999904632568)" style="opacity: 1;"><tspan x="0" y="0" dy="0" style="font-family: Arial, sans-serif; font-size: 10px; fill: black; font-weight: bold;">Luanda</tspan></text></g><g transform="translate(737.3969128612775,313.7153841113702)"><text text-anchor="middle" dominant-baseline="text-before-edge" transform="translate(0,-5.599999904632568)" style="opacity: 0;"><tspan x="0" y="0" dy="0" style="font-family: Arial, sans-serif; font-size: 10px; fill: black; font-weight: bold;">Dar es Salaam</tspan></text></g><g transform="translate(733.9543246219114,425.39275703471725)"><text text-anchor="middle" dominant-baseline="text-before-edge" transform="translate(0,-5.599999904632568)" style="opacity: 0;"><tspan x="0" y="0" dy="0" style="font-family: Arial, sans-serif; font-size: 10px; fill: black; font-weight: bold;">Abidjan</tspan></text></g><g transform="translate(867.0265289433919,311.70326899440505)"><text text-anchor="middle" dominant-baseline="text-before-edge" transform="translate(0,-5.599999904632568)" style="opacity: 0;"><tspan x="0" y="0" dy="0" style="font-family: Arial, sans-serif; font-size: 10px; fill: black; font-weight: bold;">Greater Johannesburg</tspan></text></g><g transform="translate(647.9444593376418,566.6301827972878)"><text text-anchor="middle" dominant-baseline="text-before-edge" transform="translate(0,-5.599999904632568)" style="opacity: 1;"><tspan x="0" y="0" dy="0" style="font-family: Arial, sans-serif; font-size: 10px; fill: black; font-weight: bold;">Moscow</tspan></text></g><g transform="translate(693.553759319326,566.6301827972878)"><text text-anchor="middle" dominant-baseline="text-before-edge" transform="translate(0,-5.599999904632568)" style="opacity: 0;"><tspan x="0" y="0" dy="0" style="font-family: Arial, sans-serif; font-size: 10px; fill: black; font-weight: bold;">Saint Petersburg</tspan></text></g><g transform="translate(749.6019228712123,566.6301827972878)"><text text-anchor="middle" dominant-baseline="text-before-edge" transform="translate(0,-5.599999904632568)" style="opacity: 1;"><tspan x="0" y="0" dy="0" style="font-family: Arial, sans-serif; font-size: 10px; fill: black; font-weight: bold;">Istanbul</tspan></text></g><g transform="translate(721.9431979853563,620.7014885060441)"><text text-anchor="middle" dominant-baseline="text-before-edge" transform="translate(0,-5.599999904632568)" style="opacity: 1;"><tspan x="0" y="0" dy="0" style="font-family: Arial, sans-serif; font-size: 10px; fill: black; font-weight: bold;">London</tspan></text></g><g transform="translate(720.4259532194258,522.1274543233166)"><text text-anchor="middle" dominant-baseline="text-before-edge" transform="translate(0,-5.599999904632568)" style="opacity: 1;"><tspan x="0" y="0" dy="0" style="font-family: Arial, sans-serif; font-size: 10px; fill: black; font-weight: bold;">Berlin</tspan></text></g><g transform="translate(687.5505669909073,500.7115303451714)"><text text-anchor="middle" dominant-baseline="text-before-edge" transform="translate(0,-5.599999904632568)" style="opacity: 1;"><tspan x="0" y="0" dy="0" style="font-family: Arial, sans-serif; font-size: 10px; fill: black; font-weight: bold;">Madrid</tspan></text></g><g transform="translate(677.781135247522,634.3889750500116)"><text text-anchor="middle" dominant-baseline="text-before-edge" transform="translate(0,-5.599999904632568)" style="opacity: 1;"><tspan x="0" y="0" dy="0" style="font-family: Arial, sans-serif; font-size: 10px; fill: black; font-weight: bold;">Kiev</tspan></text></g><g transform="translate(758.5019475947956,515.5514182526023)"><text text-anchor="middle" dominant-baseline="text-before-edge" transform="translate(0,-5.599999904632568)" style="opacity: 1;"><tspan x="0" y="0" dy="0" style="font-family: Arial, sans-serif; font-size: 10px; fill: black; font-weight: bold;">Rome</tspan></text></g><g transform="translate(766.2271379476956,614.2507204038277)"><text text-anchor="middle" dominant-baseline="text-before-edge" transform="translate(0,-5.599999904632568)" style="opacity: 1;"><tspan x="0" y="0" dy="0" style="font-family: Arial, sans-serif; font-size: 10px; fill: black; font-weight: bold;">Paris</tspan></text></g><g transform="translate(651.8219219040257,501.7373578233733)"><text text-anchor="middle" dominant-baseline="text-before-edge" transform="translate(0,-5.599999904632568)" style="opacity: 1;"><tspan x="0" y="0" dy="0" style="font-family: Arial, sans-serif; font-size: 10px; fill: black; font-weight: bold;">Minsk</tspan></text></g><g transform="translate(661.5058096235939,190.68817739461528)"><text text-anchor="middle" dominant-baseline="text-before-edge" transform="translate(0,-5.599999904632568)" style="opacity: 1;"><tspan x="0" y="0" dy="0" style="font-family: Arial, sans-serif; font-size: 10px; fill: black; font-weight: bold;">São Paulo</tspan></text></g><g transform="translate(708.5867177768354,190.68817739461528)"><text text-anchor="middle" dominant-baseline="text-before-edge" transform="translate(0,-5.599999904632568)" style="opacity: 0;"><tspan x="0" y="0" dy="0" style="font-family: Arial, sans-serif; font-size: 10px; fill: black; font-weight: bold;">Rio de Janeiro</tspan></text></g><g transform="translate(690.2789386878512,220.08985491850004)"><text text-anchor="middle" dominant-baseline="text-before-edge" transform="translate(0,-5.599999904632568)" style="opacity: 1;"><tspan x="0" y="0" dy="0" style="font-family: Arial, sans-serif; font-size: 10px; fill: black; font-weight: bold;">Salvador</tspan></text></g><g transform="translate(690.2771401871913,161.30296165887236)"><text text-anchor="middle" dominant-baseline="text-before-edge" transform="translate(0,-5.599999904632568)" style="opacity: 1;"><tspan x="0" y="0" dy="0" style="font-family: Arial, sans-serif; font-size: 10px; fill: black; font-weight: bold;">Brasília</tspan></text></g><g transform="translate(664.5289314759144,150.36992172395085)"><text text-anchor="middle" dominant-baseline="text-before-edge" transform="translate(0,-5.599999904632568)" style="opacity: 0;"><tspan x="0" y="0" dy="0" style="font-family: Arial, sans-serif; font-size: 10px; fill: black; font-weight: bold;">Fortaleza</tspan></text></g><g transform="translate(761.5235064880604,185.31811156687246)"><text text-anchor="middle" dominant-baseline="text-before-edge" transform="translate(0,-5.599999904632568)" style="opacity: 1;"><tspan x="0" y="0" dy="0" style="font-family: Arial, sans-serif; font-size: 10px; fill: black; font-weight: bold;">Lima</tspan></text></g><g transform="translate(742.5697392055381,236.21133419884973)"><text text-anchor="middle" dominant-baseline="text-before-edge" transform="translate(0,-5.599999904632568)" style="opacity: 1;"><tspan x="0" y="0" dy="0" style="font-family: Arial, sans-serif; font-size: 10px; fill: black; font-weight: bold;">Bogotá</tspan></text></g><g transform="translate(741.4867950203427,138.3567870973068)"><text text-anchor="middle" dominant-baseline="text-before-edge" transform="translate(0,-5.599999904632568)" style="opacity: 1;"><tspan x="0" y="0" dy="0" style="font-family: Arial, sans-serif; font-size: 10px; fill: black; font-weight: bold;">Santiago</tspan></text></g><g transform="translate(705.4212779775743,115.40633542659187)"><text text-anchor="middle" dominant-baseline="text-before-edge" transform="translate(0,-5.599999904632568)" style="opacity: 1;"><tspan x="0" y="0" dy="0" style="font-family: Arial, sans-serif; font-size: 10px; fill: black; font-weight: bold;">Caracas</tspan></text></g><g transform="translate(701.61466238578,256.1005558656941)"><text text-anchor="middle" dominant-baseline="text-before-edge" transform="translate(0,-5.599999904632568)" style="opacity: 1;"><tspan x="0" y="0" dy="0" style="font-family: Arial, sans-serif; font-size: 10px; fill: black; font-weight: bold;">Buenos Aires</tspan></text></g><g transform="translate(478.9331681204858,112.4940272544676)"><text text-anchor="middle" dominant-baseline="text-before-edge" transform="translate(0,-5.599999904632568)" style="opacity: 1;"><tspan x="0" y="0" dy="0" style="font-family: Arial, sans-serif; font-size: 10px; fill: black; font-weight: bold;">New York City</tspan></text></g><g transform="translate(518.283109686163,112.4940272544676)"><text text-anchor="middle" dominant-baseline="text-before-edge" transform="translate(0,-5.599999904632568)" style="opacity: 0;"><tspan x="0" y="0" dy="0" style="font-family: Arial, sans-serif; font-size: 10px; fill: black; font-weight: bold;">Los Angeles</tspan></text></g><g transform="translate(504.26082241521294,139.33903034663035)"><text text-anchor="middle" dominant-baseline="text-before-edge" transform="translate(0,-5.599999904632568)" style="opacity: 1;"><tspan x="0" y="0" dy="0" style="font-family: Arial, sans-serif; font-size: 10px; fill: black; font-weight: bold;">Chicago</tspan></text></g><g transform="translate(504.10042661870597,86.81731597573045)"><text text-anchor="middle" dominant-baseline="text-before-edge" transform="translate(0,-5.599999904632568)" style="opacity: 1;"><tspan x="0" y="0" dy="0" style="font-family: Arial, sans-serif; font-size: 10px; fill: black; font-weight: bold;">Houston</tspan></text></g><g transform="translate(481.5147988376785,78.51051990227316)"><text text-anchor="middle" dominant-baseline="text-before-edge" transform="translate(0,-5.599999904632568)" style="opacity: 0;"><tspan x="0" y="0" dy="0" style="font-family: Arial, sans-serif; font-size: 10px; fill: black; font-weight: bold;">Philadelphia</tspan></text></g><g transform="translate(570.5686412079508,110.2481825731255)"><text text-anchor="middle" dominant-baseline="text-before-edge" transform="translate(0,-5.599999904632568)" style="opacity: 1;"><tspan x="0" y="0" dy="0" style="font-family: Arial, sans-serif; font-size: 10px; fill: black; font-weight: bold;">Mexico City</tspan></text></g><g transform="translate(605.40076373548,110.2481825731255)"><text text-anchor="middle" dominant-baseline="text-before-edge" transform="translate(0,-5.599999904632568)" style="opacity: 0;"><tspan x="0" y="0" dy="0" style="font-family: Arial, sans-serif; font-size: 10px; fill: black; font-weight: bold;">Ecatepec de Morelos</tspan></text></g><g transform="translate(534.5963585124813,169.68167385149465)"><text text-anchor="middle" dominant-baseline="text-before-edge" transform="translate(0,-5.599999904632568)" style="opacity: 1;"><tspan x="0" y="0" dy="0" style="font-family: Arial, sans-serif; font-size: 10px; fill: black; font-weight: bold;">Toronto</tspan></text></g><g transform="translate(560.3529012414459,169.68167385149465)"><text text-anchor="middle" dominant-baseline="text-before-edge" transform="translate(0,-5.599999904632568)" style="opacity: 0;"><tspan x="0" y="0" dy="0" style="font-family: Arial, sans-serif; font-size: 10px; fill: black; font-weight: bold;">Montreal</tspan></text></g><g transform="translate(544.6909303615132,68.26010623703795)"><text text-anchor="middle" dominant-baseline="text-before-edge" transform="translate(0,-5.599999904632568)" style="opacity: 1;"><tspan x="0" y="0" dy="0" style="font-family: Arial, sans-serif; font-size: 10px; fill: black; font-weight: bold;">Havana</tspan></text></g></g></g><g id="legend" transform="translate(1280,20)"><g transform="translate(5,0)"><g class="legendSize" transform="translate(0,0)"><g class="legendCells" transform="translate(35,16)"><g class="cell" transform="translate(0, 9)"><circle class="swatch" r="9" fill="none" stroke="#ccc"/><text class="label" transform="translate( 40,&#10;          5)" font-family="&quot;Arial&quot;, sans-serif" font-size="10px"><tspan x="0" dy="0em">1567442.0</tspan></text></g><g class="cell" transform="translate(0, 62.018433998732505)"><circle class="swatch" r="35" fill="none" stroke="#ccc"/><text class="label" transform="translate( 40,&#10;          5)" font-family="&quot;Arial&quot;, sans-serif" font-size="10px"><tspan x="0" dy="0em">24256800.0</tspan></text></g></g><text class="legendTitle" font-family="&quot;Arial&quot;, sans-serif" font-size="12px" font-weight="bold"><tspan x="0" dy="0em">Population [sum]</tspan></text></g><g class="legendColor" transform="translate(0,145.8184356689453)"><g class="legendCells" transform="translate(0,16)"><g class="cell" transform="translate(0, 0)"><rect class="swatch" height="15" width="15" style="fill: rgb(158, 1, 66);"/><text class="label" transform="translate( 20, 12.5)" font-family="&quot;Arial&quot;, sans-serif" font-size="10px"><tspan x="0" dy="0em">Africa</tspan></text></g><g class="cell" transform="translate(0, 21)"><rect class="swatch" height="15" width="15" style="fill: rgb(248, 142, 83);"/><text class="label" transform="translate( 20, 12.5)" font-family="&quot;Arial&quot;, sans-serif" font-size="10px"><tspan x="0" dy="0em">Asia</tspan></text></g><g class="cell" transform="translate(0, 42)"><rect class="swatch" height="15" width="15" style="fill: rgb(251, 248, 176);"/><text class="label" transform="translate( 20, 12.5)" font-family="&quot;Arial&quot;, sans-serif" font-size="10px"><tspan x="0" dy="0em">Europe</tspan></text></g><g class="cell" transform="translate(0, 63)"><rect class="swatch" height="15" width="15" style="fill: rgb(137, 207, 165);"/><text class="label" transform="translate( 20, 12.5)" font-family="&quot;Arial&quot;, sans-serif" font-size="10px"><tspan x="0" dy="0em">North America</tspan></text></g><g class="cell" transform="translate(0, 84)"><rect class="swatch" height="15" width="15" style="fill: rgb(94, 79, 162);"/><text class="label" transform="translate( 20, 12.5)" font-family="&quot;Arial&quot;, sans-serif" font-size="10px"><tspan x="0" dy="0em">South America</tspan></text></g></g><text class="legendTitle" font-family="&quot;Arial&quot;, sans-serif" font-size="12px" font-weight="bold"><tspan x="0" dy="0em">Continent [csvDistinct]</tspan></text></g></g></g></svg>